# Generato da dwg2c4d
# Unita': m  |  asse verticale: Y
mtllib esempio.mtl
v 8 0 -6
v 0 0 -6
v 0 0.9 -6
v 8 0.9 -6
v 0.3 0 -5.7
v 7.7 0 -5.7
v 7.7 0.9 -5.7
v 0.3 0.9 -5.7
v 7.7 0 -3.95
v 7.7 0 -0.3
v 7.7 0.9 -0.3
v 7.7 0.9 -3.95
v 8 0 0
v 8 0.9 0
v 3.95 0 -1.5
v 3.95 0 -0.3
v 3.95 2.1 -0.3
v 3.95 2.1 -1.5
v 3.95 0 -4
v 3.95 0 -2.3
v 3.95 2.1 -2.3
v 3.95 2.1 -4
v 1.9 0 0
v 8 2.1 0
v 1.9 2.1 0
v 4.05 0 -1.5
v 4.05 2.1 -1.5
v 0 0 0
v 1 0 0
v 1 2.1 0
v 0 2.1 0
v 4.05 0 -0.3
v 4.05 2.1 -0.3
v 1 0 -0.3
v 0.3 0 -0.3
v 0.3 2.1 -0.3
v 1 2.1 -0.3
v 1.9 0 -0.3
v 1.9 2.1 -0.3
v 4.05 0 -2.3
v 4.05 0 -3.95
v 4.05 2.1 -3.95
v 4.05 2.1 -2.3
v 8 0.9 -2
v 8 2.2 -2
v 8 2.2 0
v 2 0.9 -5.7
v 2 0.9 -6
v 2 2.2 -6
v 2 2.2 -5.7
v 3.2 0.9 -6
v 3.2 0.9 -5.7
v 3.2 2.2 -5.7
v 3.2 2.2 -6
v 7.7 0.9 -2
v 7.7 2.2 -0.3
v 7.7 2.2 -2
v 8 0.9 -3.2
v 8 2.2 -6
v 8 2.2 -3.2
v 0.3 2.2 -5.7
v 7.7 2.2 -5.7
v 7.7 0.9 -3.2
v 7.7 2.2 -3.2
v 7.7 2.2 -3.95
v 0 2.2 -6
v 7.7 0 -4.05
v 7.7 2.7 -4.05
v 7.7 2.7 -5.7
v 0.3 2.7 -5.7
v 0.3 2.7 -0.3
v 7.7 2.7 -3.95
v 4.05 2.7 -3.95
v 0 2.7 0
v 0 2.7 -6
v 4.05 2.7 -0.3
v 7.7 2.7 -0.3
v 4.05 0 -4.05
v 4.05 2.7 -4.05
v 4.05 0 -4
v 3.95 2.7 -4
v 4.05 2.7 -4
v 8 2.7 0
v 3.95 2.7 -0.3
v 8 2.7 -6
v 7.84 0.9 -2
v 7.86 0.9 -2
v 7.86 2.2 -2
v 7.84 2.2 -2
v 7.84 0.9 -3.2
v 7.84 2.2 -3.2
v 7.86 0.9 -3.2
v 7.86 2.2 -3.2
v 2 0.9 -5.86
v 2 0.9 -5.84
v 2 2.2 -5.84
v 2 2.2 -5.86
v 3.2 0.9 -5.84
v 3.2 2.2 -5.84
v 3.2 0.9 -5.86
v 3.2 2.2 -5.86
v 0 -0.2 0
v 8 -0.2 0
v 8 -0.2 -6
v 0 -0.2 -6
vn 0 0 -1
vn 0 0 1
vn -1 0 0
vn 1 0 0
vn 0 1 0
vn 0 -1 0
o Muri
usemtl Muri
s off
f 1//1 2//1 3//1 4//1
f 5//2 6//2 7//2 8//2
f 9//3 10//3 11//3 12//3
f 13//4 1//4 4//4 14//4
f 15//3 16//3 17//3 18//3
f 19//3 20//3 21//3 22//3
f 23//2 13//2 24//2 25//2
f 26//1 15//1 18//1 27//1
f 28//2 29//2 30//2 31//2
f 32//4 26//4 27//4 33//4
f 34//1 35//1 36//1 37//1
f 38//3 23//3 25//3 39//3
f 40//4 41//4 42//4 43//4
f 29//4 34//4 37//4 30//4
f 20//2 40//2 43//2 21//2
f 16//1 38//1 39//1 17//1
f 14//4 44//4 45//4 46//4
f 47//4 48//4 49//4 50//4
f 51//3 52//3 53//3 54//3
f 55//3 11//3 56//3 57//3
f 58//4 4//4 59//4 60//4
f 44//1 55//1 57//1 45//1
f 8//2 47//2 50//2 61//2
f 4//1 51//1 54//1 59//1
f 52//2 7//2 62//2 53//2
f 12//3 63//3 64//3 65//3
f 63//2 58//2 60//2 64//2
f 48//1 3//1 66//1 49//1
f 6//3 67//3 68//3 69//3
f 35//4 5//4 70//4 71//4
f 41//2 9//2 72//2 73//2
f 2//3 28//3 74//3 75//3
f 10//1 32//1 76//1 77//1
f 67//1 78//1 79//1 68//1
f 80//1 19//1 81//1 82//1
f 78//3 80//3 82//3 79//3
f 31//2 24//2 83//2 74//2
f 17//1 36//1 71//1 84//1
f 22//3 17//3 84//3 81//3
f 33//4 42//4 73//4 76//4
f 61//2 62//2 69//2 70//2
f 65//3 56//3 77//3 72//3
f 46//4 59//4 85//4 83//4
f 59//1 66//1 75//1 85//1
f 51//5 48//5 47//5 52//5
f 44//5 58//5 63//5 55//5
f 25//6 30//6 37//6 39//6
f 43//6 27//6 18//6 21//6
f 71//5 75//5 74//5
f 81//5 84//5 73//5
f 76//5 73//5 84//5
f 68//5 79//5 82//5
f 75//5 71//5 70//5
f 71//5 74//5 84//5
f 81//5 73//5 82//5
f 75//5 70//5 85//5
f 83//5 84//5 74//5
f 72//5 82//5 73//5
f 69//5 85//5 70//5
f 76//5 84//5 83//5
f 68//5 82//5 72//5
f 85//5 69//5 68//5
f 77//5 76//5 83//5
f 85//5 68//5 72//5
f 77//5 83//5 72//5
f 85//5 72//5 83//5
f 53//6 50//6 49//6 54//6
f 57//6 64//6 60//6 45//6
o Vetri
usemtl Vetri
s off
f 86//2 87//2 88//2 89//2
f 90//3 86//3 89//3 91//3
f 87//4 92//4 93//4 88//4
f 92//1 90//1 91//1 93//1
f 89//5 88//5 93//5 91//5
f 90//6 92//6 87//6 86//6
f 94//3 95//3 96//3 97//3
f 95//2 98//2 99//2 96//2
f 98//4 100//4 101//4 99//4
f 100//1 94//1 97//1 101//1
f 97//5 96//5 99//5 101//5
f 100//6 98//6 95//6 94//6
o Pavimento
usemtl Pavimento
s off
f 102//2 103//2 13//2 28//2
f 103//4 104//4 1//4 13//4
f 105//3 102//3 28//3 2//3
f 104//1 105//1 2//1 1//1
f 28//5 13//5 1//5 2//5
f 105//6 104//6 103//6 102//6
